<?xml version="1.0" standalone="no"?>
<!DOCTYPE svg PUBLIC "-//W3C//DTD SVG 20010904//EN"
 "http://www.w3.org/TR/2001/REC-SVG-20010904/DTD/svg10.dtd">
<svg version="1.0" xmlns="http://www.w3.org/2000/svg"
 width="260.000000pt" height="260.000000pt" viewBox="0 0 260.000000 260.000000"
 preserveAspectRatio="xMidYMid meet">
<metadata>
Created by potrace 1.14, written by Peter Selinger 2001-2017
</metadata>
<g transform="translate(0.000000,260.000000) scale(0.100000,-0.100000)"
fill="#000000" stroke="none">
<path d="M6 2590 c-2 -3 -2 -185 -2 -405 l1 -400 350 -2 c193 0 353 -1 358 -2
4 -1 6 -18 4 -38 l-2 -38 -330 -2 c-182 -1 -342 -2 -356 -2 l-25 -1 0 -402 1
-403 403 0 402 0 1 25 c0 14 1 128 1 253 l1 229 51 -49 c28 -26 51 -48 52 -48
1 0 -15 -47 -37 -104 -22 -57 -38 -106 -36 -107 3 -3 179 -68 417 -154 58 -21
136 -50 175 -64 38 -14 70 -26 71 -26 1 0 9 20 18 45 10 25 20 45 23 45 18 0
113 -101 113 -121 0 -4 -170 -8 -378 -8 -207 0 -384 -2 -392 -4 -31 -6 -37
-18 -39 -84 -1 -37 -4 -85 -5 -105 -5 -62 11 -145 31 -165 16 -16 18 -37 18
-230 -1 -139 3 -214 10 -216 5 -2 186 -3 400 -3 l390 1 3 248 2 248 40 50 c22
28 40 47 41 42 0 -4 1 -137 1 -296 1 -202 4 -287 12 -288 6 -1 188 -2 403 -3
257 -1 394 2 396 9 2 9 1 782 -2 795 -1 3 -171 4 -378 3 l-378 -2 -1 40 c-1
21 2 40 5 40 3 1 175 2 381 3 l374 1 1 390 c0 215 -1 397 -3 405 -3 13 -52 15
-375 14 l-373 -1 4 36 c3 20 8 38 13 41 4 3 170 5 368 5 199 -1 361 1 362 4 4
21 3 801 -1 802 -14 3 -787 5 -796 2 -8 -3 -11 -69 -10 -219 1 -150 -2 -214
-10 -214 -6 0 -25 5 -42 11 l-32 11 -2 206 -3 207 -397 0 c-219 0 -399 -2
-399 -5 -1 -3 -2 -115 -3 -250 l-2 -246 -32 -33 c-18 -19 -32 -38 -32 -42 0
-5 -4 -9 -9 -9 -5 0 -9 120 -9 283 0 155 -1 287 -1 292 -1 10 -800 15 -805 5z
m1755 -758 c21 -55 22 -69 21 -427 0 -203 -1 -372 -1 -374 -1 -2 -14 14 -29
35 -16 21 -50 59 -76 84 -30 30 -44 50 -40 60 24 56 113 304 110 307 -2 2
-151 57 -332 123 -239 87 -330 116 -336 107 -4 -7 -20 -49 -35 -94 -14 -46
-30 -83 -34 -83 -13 0 -66 67 -86 111 -32 67 -36 96 -15 101 9 2 191 4 405 3
l387 0 0 75 1 75 19 -23 c10 -13 29 -49 41 -80z"/>
<path d="M29 812 l-25 -3 0 -402 1 -402 403 0 c396 0 402 0 403 20 3 107 0
777 -4 781 -6 6 -732 11 -778 6z"/>
</g>
</svg>
